<?xml version="1.0" encoding="utf-8"?>
<!-- Generator: Adobe Illustrator 18.0.0, SVG Export Plug-In . SVG Version: 6.00 Build 0)  -->
<!DOCTYPE svg PUBLIC "-//W3C//DTD SVG 1.1//EN" "http://www.w3.org/Graphics/SVG/1.1/DTD/svg11.dtd">
<svg version="1.1" id="Layer_1" xmlns="http://www.w3.org/2000/svg" xmlns:xlink="http://www.w3.org/1999/xlink" x="0px" y="0px"
	 viewBox="0 0 500 500" enable-background="new 0 0 500 500" xml:space="preserve">
<g>
	<g>
		<path fill="#00B4FF" d="M251.3,237.4c-1.6,0-3.2-0.3-4.7-0.5l-29,61H242v-11.8c0-1.1,0.4-2.2,1.5-2.2H259c1.1,0,3,1.1,3,2.2V298
			h20.4l-28.9-61C252.8,237.1,252,237.4,251.3,237.4z M250,24.9c-124.3,0-225,100.7-225,225s100.7,225,225,225s225-100.7,225-225
			S374.3,24.9,250,24.9z M326.8,392.9l-35-74.9H262v13.6c0,1.1-1.9,1.4-3,1.4h-15.5c-1.1,0-1.5-0.3-1.5-1.4V318h-33.7l-35,74.6
			l-13.3-35.7l19.4-38.9H166v-20h23.3l35-68.8c-13.8-8.9-22.8-23.9-22.8-41.5c0-24.3,17.5-44.5,40.5-49v-25.8c0-2.9,1.9-5.9,4.9-5.9
			h8.8c2.9,0,6.3,2.9,6.3,5.9v25.8c22,4.5,39.8,24.5,39.8,48.8c0,18.4-10.5,34.3-25.3,42.9l34.3,67.6H337v20h-16.3l19.4,38.7
			L326.8,392.9z M251.3,215.9c15.6,0,28.2-12.6,28.2-28.2c0-15.6-12.6-28.2-28.2-28.2s-28.2,12.6-28.2,28.2
			C223.1,203.3,235.7,215.9,251.3,215.9z"/>
	</g>
</g>
</svg>
